<svg id="Layer_1" data-name="Layer 1" xmlns="http://www.w3.org/2000/svg" viewBox="0 0 193.1 47.41">
  <defs>
    <style>
      .cls-1 {
        fill: #e30613;
      }
    </style>
  </defs>
  <path class="cls-1" d="M44.9,28.26c-.78-3.48-1.89-6.88-2.71-10.36s-1.57-7.18-2.3-10.79a2,2,0,0,0-3.64-.47,96.92,96.92,0,0,0-5.76,12.67c-.67,1.91-1,3.93-1.69,5.82a2.81,2.81,0,0,1-.33.7,1.41,1.41,0,0,1-.39-.19,24.84,24.84,0,0,1-2.27-1.7c-3.11-2.39-6.22-5-8.3-8.39S14.21,8.22,11.3,5.31C9.76,3.77,7.52,5.55,8,7.24c-1.67,7,1.85,13.66,1.46,20.67a37.37,37.37,0,0,1-.94,5.24,38.73,38.73,0,0,0-.67,5.47c-.23,3.73-.16,7.48-1.34,11.07-.8,2.44,3,3.48,3.84,1.06,1.17-3.55,1.25-7.3,1.42-11a36.79,36.79,0,0,1,.59-5.54c.36-1.82.83-3.6,1-5.45.56-5.47-1.76-10.9-1.91-16.33.72,1.42,1.37,2.89,2.15,4.27a29.91,29.91,0,0,0,7.05,8.15C22,26,23.39,27.07,24.8,28.14s3,2.14,4.81,1.58a5,5,0,0,0,3-3.53c.56-1.7.89-3.47,1.47-5.17a65.05,65.05,0,0,1,3.07-7.37c.36,1.69.72,3.39,1.12,5.07.79,3.41,1.83,6.74,2.65,10.13a12.47,12.47,0,0,1,.39,4.82c-.27,1.71-.91,3.34-1.33,5a79.35,79.35,0,0,0-1.64,10.39,2,2,0,0,0,2,2,2,2,0,0,0,2-2A64.75,64.75,0,0,1,44.1,38.82a35.44,35.44,0,0,0,1.22-5.08A16.07,16.07,0,0,0,44.9,28.26Z" transform="translate(-6.36 -4.72)"/>
  <path class="cls-1" d="M58.21,36.19c-.45-4-1.52-7.83-1.76-11.82-.16-2.54-4.15-2.56-4,0,.24,3.78,1.17,7.44,1.69,11.18.44,3.25.54,6.8-.88,9.84A2,2,0,0,0,54,48.11a2,2,0,0,0,2.73-.71A20.58,20.58,0,0,0,58.21,36.19Z" transform="translate(-6.36 -4.72)"/>
  <path class="cls-1" d="M56.74,16.83a2,2,0,0,0-.91-1.19l-.48-.2a2.16,2.16,0,0,0-.8,0,4,4,0,0,1-.69,0,4.73,4.73,0,0,1-.74-.19,1.55,1.55,0,0,0-.8,0,1.53,1.53,0,0,0-.74.23A1.55,1.55,0,0,0,51,16a1.53,1.53,0,0,0-.35.68l-.08.52a2.1,2.1,0,0,0,.28,1l.31.4a2,2,0,0,0,.88.52,6.45,6.45,0,0,0,1.63.32,6.17,6.17,0,0,0,1.66-.12,1.45,1.45,0,0,0,.68-.36,1.82,1.82,0,0,0,.75-1.3A1.42,1.42,0,0,0,56.74,16.83Z" transform="translate(-6.36 -4.72)"/>
  <path class="cls-1" d="M74.6,31.34a28.63,28.63,0,0,1-.23-3.07,7.2,7.2,0,0,0-.47-3.36c-.68-1.15-1.91-1.28-3.12-1.33-.8,0-1.6,0-2.4,0-.81-1.6-3.77-1.3-3.78.91l-.06,10.26,0,4.92c0,1.37.24,3.1-.35,4.38a2,2,0,0,0,.71,2.73,2,2,0,0,0,2.73-.71,11.87,11.87,0,0,0,.89-5.17l0-5.33q0-4,0-8c.32,0,.65-.05,1-.05h.81c0,.36,0,.72,0,1.08,0,.73.07,1.46.15,2.18a37.42,37.42,0,0,0,.86,4.82c.69,2.92,1.53,5.79,1.38,8.82-.13,2.57,3.85,2.56,4,0C77,39.94,75.22,35.75,74.6,31.34Z" transform="translate(-6.36 -4.72)"/>
  <path class="cls-1" d="M85.45,42.73a68,68,0,0,1-2-16.63c0-2.57-4-2.57-4,0a72.23,72.23,0,0,0,2.09,17.69C82.22,46.28,86.06,45.23,85.45,42.73Z" transform="translate(-6.36 -4.72)"/>
  <path class="cls-1" d="M80.93,13.74c-2.57,0-2.57,4,0,4S83.49,13.74,80.93,13.74Z" transform="translate(-6.36 -4.72)"/>
  <path class="cls-1" d="M105.65,30.2l-.36-.18a2.23,2.23,0,0,0-2,0,36.12,36.12,0,0,1-4.29,0,29.49,29.49,0,0,1-5.3-.78,2,2,0,1,0-1.06,3.84,36.93,36.93,0,0,0,12,.8,2.07,2.07,0,0,0,1.92-1.46A2,2,0,0,0,105.65,30.2Z" transform="translate(-6.36 -4.72)"/>
  <path class="cls-1" d="M130.72,37.84a24.72,24.72,0,0,0-.77-5.75c-.48-1.58-1.88-2.16-3.36-2.3,2.46-3,2.59-7.06,1.78-10.67-.48-2.16-1.28-4.24-1.79-6.39-.45-1.89-.71-4-2.57-5.07s-4.45-.83-6.42-.74a29.47,29.47,0,0,0-7.27,1.26,1.92,1.92,0,0,0-1.19,1s-.1-.06-.16-.08a2.06,2.06,0,0,0-2.73.71,2,2,0,0,0,.72,2.73c.86.39,1.05,1.51,1.35,2.33.48,1.36,1,2.72,1.46,4.07,1,2.72,2.14,5.45,2.85,8.25s-.11,5.32-1,7.9c-1,2.87-2.09,5.73-3.14,8.59-.75,2.05,1.92,3.1,3.27,1.9a1.9,1.9,0,0,0,1.36.6l12.6.53c1.13,0,2.23.14,3.14-.64a4.56,4.56,0,0,0,1.24-2.12A16.28,16.28,0,0,0,130.72,37.84ZM111.55,12a24.65,24.65,0,0,1,5.58-1.05c.91,0,1.83-.07,2.74,0,.48,0,1.73-.1,2.13.19s.46,1.39.55,1.83c.18.87.4,1.73.65,2.58a53.54,53.54,0,0,1,1.51,5.55c.42,2.41.15,5.75-2.25,7.07a18.78,18.78,0,0,1-4.19,1.26,13.8,13.8,0,0,0-1.45.51,13.37,13.37,0,0,0-.48-4.22c-.87-3.1-2.13-6.13-3.22-9.16C112.65,15.19,112.24,13.47,111.55,12Zm12.2,30.64-3.64-.15-6.88-.29c.87-2.34,1.75-4.68,2.55-7a12.42,12.42,0,0,0,5.63-.48c1.44-.4,3.25-1.13,4.83-.9l.05.3.21,1.36c.13,1,.22,1.92.26,2.88a15.71,15.71,0,0,1-.09,2.66,7.84,7.84,0,0,1-.38,1.84C125.47,42.84,124.5,42.65,123.75,42.62Z" transform="translate(-6.36 -4.72)"/>
  <path class="cls-1" d="M148.9,40.94a31.53,31.53,0,0,1-1-5.27c-.17-1.84,0-3.81-.7-5.55-1.44-3.55-5.06-4.67-8.53-5.19h0l-.53-.08a1.5,1.5,0,0,0-1.09.32,1.88,1.88,0,0,0-1.74.11c-3,1.9-3.4,6.3-3.27,9.5a19.2,19.2,0,0,0,1,5.31,6.88,6.88,0,0,0,3.11,4.25c3.28,1.62,6.83-.35,8.58-3.23,0-.07.08-.15.13-.22.08.37.15.74.25,1.11C145.73,44.48,149.57,43.43,148.9,40.94ZM142,37.68a7.69,7.69,0,0,1-1.62,2.55,2.75,2.75,0,0,1-2,.71,1.18,1.18,0,0,1-.69-.3,3.24,3.24,0,0,1-.68-1.12,14,14,0,0,1-.93-3.77,15,15,0,0,1,.12-4.18,11.13,11.13,0,0,1,.53-2.06A4,4,0,0,1,137,29a.7.7,0,0,1,.29-.27s0,0,.05,0a1.17,1.17,0,0,0,.24.09c.51.13,1,.27,1.5.43a9.14,9.14,0,0,1,1.3.5,8.27,8.27,0,0,1,1.32.77l0,0,.07.06.23.21.3.3.1.13C143.78,33,142.76,35.72,142,37.68Z" transform="translate(-6.36 -4.72)"/>
  <path class="cls-1" d="M155.26,27.23a7.17,7.17,0,0,1,1.53-.48,16.06,16.06,0,0,1,3.53.14,2,2,0,0,0,2-2,2.05,2.05,0,0,0-2-2c-2.52-.26-5.36-.38-7.51,1.19A4.31,4.31,0,0,0,151.2,28a5.71,5.71,0,0,0,1.24,3.92,10.34,10.34,0,0,0,2.66,1.81A5.41,5.41,0,0,1,157,36.17a3.71,3.71,0,0,1,.4,2.53,1.2,1.2,0,0,1-.51.71.54.54,0,0,1-.41,0,2,2,0,0,0-2.73.72,2,2,0,0,0,.71,2.72,4.77,4.77,0,0,0,6.78-3.12C162,37,160.71,34,159,31.92a9.36,9.36,0,0,0-2.93-2.22c-.85-.48-.91-.72-.91-1.87,0,0,0-.35,0-.56Z" transform="translate(-6.36 -4.72)"/>
  <path class="cls-1" d="M177.18,34.73a46.18,46.18,0,0,0-3.94-10.12c-1.2-2.26-4.64-.25-3.44,2a41.56,41.56,0,0,1,3.29,8.24,43.56,43.56,0,0,1,1,4.36c.13.75.4,2.11-.06,2.67a2,2,0,0,0,0,2.81,2,2,0,0,0,2.82,0C179.15,41.89,178,37.92,177.18,34.73Z" transform="translate(-6.36 -4.72)"/>
  <path class="cls-1" d="M169,18.59c-2.56,0-2.56,4,0,4S171.55,18.59,169,18.59Z" transform="translate(-6.36 -4.72)"/>
  <path class="cls-1" d="M197.46,32.52c-1.56.12-3.63-.09-4.55,1.48a3.52,3.52,0,0,0-.37,1.09c0,.14,0,.15,0,.15s0,0-.11.12c.24-.32-.41.4-.13.18a2.06,2.06,0,0,1-.46.27s-.41.13-.39.12a3.56,3.56,0,0,1-1.08,0,5.23,5.23,0,0,1-.54-.12c-.09,0-.34-.12-.56-.2l-.05-.14c-.09-.26-.18-.51-.28-.77a3.66,3.66,0,0,1-.33-1.49c.1-1.2.37-2.57.58-3.81A30.32,30.32,0,0,1,190,25.6a1.77,1.77,0,0,1,.45-.82.62.62,0,0,0,.18-.06c.19,0,.22-.06.07,0,.15,0,.3,0,.46,0a27.37,27.37,0,0,0,3.84-.05,2,2,0,0,0,1.39-2.45,2,2,0,0,0-2.45-1.39c-.64.1-1.91-.11-2.78-.09a5.27,5.27,0,0,0-3.49,1.26c-1.7,1.56-1.93,4.27-2.29,6.41-.4,2.38-1.13,5-.29,7.3.44,1.24.76,2.69,2,3.41a8.39,8.39,0,0,0,3.72.89,5.88,5.88,0,0,0,3.7-1.08,5,5,0,0,0,1.39-1.48,3.09,3.09,0,0,0,.33-.77h.07l1.19-.09a2,2,0,0,0,2-2A2,2,0,0,0,197.46,32.52Z" transform="translate(-6.36 -4.72)"/>
</svg>
